<svg width="64" height="64" viewBox="0 0 64 64" fill="none" xmlns="http://www.w3.org/2000/svg">
  <rect width="64" height="64" rx="19" fill="#22C55E"/>
  <path d="M32 10C18.7 10 8 20.7 8 34C8 47.3 18.7 58 32 58C38 58 43.4 55.9 47.7 52.4L54.4 59.1L60.4 53.1L53.7 46.4C56.3 42.5 57.6 37.6 57.6 34C57.6 20.7 45.3 10 32 10ZM32 48C23.2 48 16 40.8 16 32C16 23.2 23.2 16 32 16C40.8 16 48 23.2 48 32C48 35.5 47 38.7 45.1 41.3L38.4 34.6L32.4 40.6L39.7 47.9C37.3 48.6 34.7 49 32 49V48Z" fill="#0A0A0A"/>
  <rect x="3" y="28" width="10" height="3" rx="1.5" fill="rgba(0,0,0,0.25)"/>
  <rect x="1" y="33" width="8" height="3" rx="1.5" fill="rgba(0,0,0,0.15)"/>
</svg>
